<svg xmlns="http://www.w3.org/2000/svg" viewBox="-108 -50 600 600"><g fill="#151412"><g data-id="m39"><path d="M216.2 319.26L211.31 314.23 209.59 312.16 208.54 311.02 201.8 304.14 199.5 301.67 198.48 300.34 197.03 298.29 195.21 295.5 193.24 292.3 192.34 291.13 190.59 289.57 188.15 287.57 181.48 282.61 179.81 281.07 177.49 278.68 174.89 275.4 170.53 270.59 168.54 267.97 166.9 266.06 166.06 264.9 163.59 261.17 161.68 258.72 159.12 254.88 154.52 248.42 152.43 245.25 149.6 241.32 145.92 235.87 142.7 230.68 140.03 225.62 138.71 223.3 134.16 216.31 131.94 212.68 130.61 210.65 129.75 209.02 127.97 205.37 126.59 202.11 123.44 197.14 120.68 192.38 119.68 190.13 118.58 188.14 117.32 185.31 115.61 182.18 114.75 180.34 113.4 178.33 111.13 174.73 109.63 172.19 108.31 170.22 106.36 167.13 105.26 165.12 103.72 161.98 102.59 159.2 101.5 157.4 99.64 154.05 97.01 149.91 95.63 147.26 94.31 145.13 91.74 140.53 90.79 138.36 89.57 136.12 88.93 134.55 87.59 131.75 85.92 128.5 84.64 126.19 83.8 124.18 81.77 120 81.23 118.68 80.5 116.38 79.56 114.1 79.05 112.27 78.75 111.44 77.36 108.89 75.68 105.19 74.59 103.17 73.5 100.56 71.52 96.28 71.19 95.31 70.69 93.18 69.38 90.09 68.76 87.33 67.58 84.44 66.92 81.69 64.57 74.99 64.37 73.95 64.28 72.59 64.07 63.01 63.92 60.22 63.11 56.16 62.41 53.41 62 48.13 61.36 45.21 61.18 43.62 61.1 38.98 61.13 36.54 61.28 35.43 61.98 33.02 62.09 32.1 62.07 31.24 61.93 30.48 61.6 29.45 61.02 27.96 60.57 27.01 59.32 25.4 57.39 23.34 55.88 21.89 52.75 19.14 50.77 17.16 49.44 15.61 47.93 13.5 47.41 12.87 46.7 12.23 45.84 11.69 44.24 10.97 41.74 10.08 40.93 9.88 39.22 9.58 38.05 9.23 36.1 8.4 33.75 7.5 31.55 6.29 27.89 4.89 27.16 4.76 26.14 4.71 24.49 4.68 23.5 4.73 22.88 4.86 22.3 5.06 20.84 5.83 19.84 6.52 19.16 7.12 17.81 8.85 16.41 11.01 14.43 14.57 12.43 17.63 11.18 19.34 10.31 20.86 9.36 22.91 8.93 24.24 8.75 25.49 8.54 28.47 8.25 29.9 7.71 31.17 6.36 33.35 5.94 34.53 5.76 35.4 5.68 36.55 5.61 42.23 5.71 46.21 6.03 49.59 6.21 50.62 6.43 51.42 7.54 54.17 8.12 56.22 8.45 57.13 10.24 60.91 11.07 62.45 12.34 64.55 13.38 66.76 14.63 68.8 16.24 71.77 17.37 73.62 18.43 75.84 21.52 81.2 23.09 83.7 24.76 86.15 27.2 89.36 30.08 93.48 32.56 96.74 34.66 100.04 36.68 103.75 41.38 111.77 42.25 113.85 44.47 118.55 45.4 120.89 46.41 122.95 46.71 123.95 47.04 125.86 47.37 126.81 48.36 128.64 49.75 131.79 51.33 134.7 52.28 136.79 53.36 138.83 54.93 142.37 58.32 149.25 59.28 151.58 60.93 154.64 61.67 156.18 62.34 157.82 63.44 159.69 64.31 161.77 65.47 163.95 68.3 170.57 69.06 172.98 69.36 173.72 70.89 176.37 74.21 182.72 75.25 184.43 76.3 186.75 77.43 188.69 78.28 190.31 79.41 192.8 80.59 194.75 83.74 200.8 85.42 203.7 86.31 205.62 86.91 206.5 88.34 208.32 91.1 212.39 93.08 215.04 95.84 219.01 98.09 222.4 100.42 225.45 103.36 229.78 105.2 232.23 106.48 234.14 108.53 237 111.02 240 112.29 241.8 114.18 244.1 115.66 246.16 118.67 250.14 121.95 253.94 125.47 258.85 127.1 260.97 127.54 261.72 127.74 262.27 127.86 262.86 127.92 263.8 127.87 264.79 127.75 265.46 127.55 266.08 127.27 266.65 126.9 267.18 126.44 267.67 125.67 268.31 125.11 268.66 124.31 268.86 123.08 268.93 115.65 268.94 112.34 268.86 109.99 268.68 108.47 268.44 105.81 267.85 101.78 267.55 98.64 267.05 94.88 266.69 92.29 266.3 91.67 266.26 90.78 266.3 87.58 266.68 82.64 267.01 80.15 267.41 79.07 267.49 66.36 267.54 61.99 267.45 57.16 266.62 54.23 265.74 53.35 265.36 51.63 264.32 49.8 263.49 49.1 263.01 48.58 262.53 47.84 261.7 47.46 261.1 47.27 260.61 47.16 260.03 47.1 259.04 47.18 256.09 47.43 254.5 48.3 251.57 48.88 249 49.14 244.28 49.31 242.08 49.51 240.55 49.96 238.46 50.11 237.29 50.35 231.1 50.53 229.23 51.37 225.3 51.86 223.52 52.35 221.42 53.06 219.32 53.25 218.45 53.31 217.21 53.26 215 53.19 213.72 53.05 212.8 51.82 208.47 50.45 205.24 49.44 202.05 49.21 201.05 48.87 198.72 48.57 197.65 48.2 196.81 47.6 195.68 46.31 193.61 43.41 190.36 40.59 186.95 39.28 185.67 38.42 185.07 37.8 184.81 36.91 184.62 36 184.61 35.33 184.72 34.68 184.94 34.03 185.3 33.4 185.84 32.77 186.53 32.03 187.56 29.48 191.67 28.03 193.76 27.32 195 26.71 196.49 25.44 200.58 24.76 202.54 24.26 203.65 23.43 205.04 23.05 205.83 22.2 208.04 21.92 209.04 21.5 212.73 20.92 215.59 20.81 217.24 20.87 226.29 21 232.46 21.13 234.24 21.43 235.83 21.56 236.89 21.87 242.49 22.02 243.44 22.46 245.25 22.67 246.67 23.15 253.43 23.84 256.81 24.65 259.71 24.78 260.68 25.03 264 25.65 266.74 26.02 269.75 26.48 272.35 26.64 274.6 26.85 281.95 26.99 283.29 27.3 284.85 27.38 285.95 27.46 296.57 27.47 328.61 27.35 334.78 27.24 336.2 26.97 337.9 26.89 340.68 26.66 373.62 26.69 388.65 26.93 405.47 27.02 406.46 27.36 408.29 27.47 409.91 28.04 428.42 28.23 429.63 28.44 430.25 28.73 430.84 29.24 431.47 30.15 432.1 31.75 432.78 32.82 433.08 33.69 433.19 35.13 433.24 40.32 433.16 41 433.08 41.65 432.87 42.75 432.32 43.66 431.76 44.18 431.33 44.57 430.88 44.85 430.38 45.09 429.62 45.18 427.31 45.49 412.14 45.68 409.22 46 407.25 46.09 406.12 46.5 390.68 46.6 389.03 46.91 386.83 46.98 383.18 46.92 355.85 46.86 354.38 46.6 352.72 46.51 349.76 46.12 317 46.01 314.98 45.66 312.64 45.62 311.24 45.73 309.82 46 308.28 46.08 307.49 46.24 299.82 46.4 298.05 46.82 296.74 47.48 295.51 48.31 294.54 49.16 293.91 50.39 293.35 52.72 292.69 54.77 291.46 57.18 290.18 59.92 288.95 61.64 288.3 63.18 288.1 67.06 288.01 75.34 288.01 79.6 288.09 83.77 288.32 86.44 288.4 92.36 288.42 97.17 288.35 100.97 288.1 105.95 287.91 108.79 287.42 110.7 287.2 113.2 286.65 114.79 286.42 117.87 286.19 121.58 286.1 126.85 286.14 129.09 286.26 130 286.51 132.34 287.69 133.12 287.9 133.76 287.97 135.16 287.88 138.48 287.07 140 286.85 142.42 287.1 146.01 287.33 147.31 287.55 148.3 287.93 148.99 288.3 149.82 288.91 150.47 289.52 151.11 290.27 152.75 292.43 154.98 295.03 158.02 299.03 158.91 300.46 161.96 306.31 163.29 308.64 164.3 310.8 164.76 311.51 165.24 312.11 166.61 313.54 169.52 316.24 170.96 317.5 173.01 319.11 174.88 320.88 176.57 322.69 179.36 325.97 187.66 334.56 190.22 337.34 190.13 336.73 188.11 332.99 187.17 330.35 188.97 330.61 193.62 332.19 197.23 334.29 200.69 336.2 202.33 336.26 202.04 334.35 198.69 329.29 191.04 319.61 183.97 310.25 184.79 309.46 190.24 313.75 193.01 315.08 194.21 314.7 197.09 316.13 201.5 319.14 205.73 321.9 208.32 322.95 209.59 322.63 210.64 322.09 211.93 321.79 213.38 321.65 214.71 321.39 215.68 320.76 216.18 319.65Z"></path><path d="M202.89 306.45L204.56 308.1 210.95 315 228.04 332.83 235.41 340.45 240.39 345.48 244.59 349.62 248.85 353.7 253.16 357.72 254.05 358.5 258.7 362.13 272.75 372.9 287.67 384.43 291.44 387.27 295.24 390.06 296.2 390.74 298.2 392.01 298.23 391.97 296.38 390.5 291.67 386.97 287 383.38 273.12 372.46 258.24 360.87 254.54 357.94 253.65 357.16 249.37 353.11 245.14 349.01 240.97 344.85 236.84 340.65 230.31 333.87 211.68 314.29 206.92 309.11 203.65 305.74ZM202.36 306.94L204.03 308.6 210.43 315.5 216.13 321.44 222.7 328.19 229.35 334.87 235.22 340.65 241.17 346.37 247.19 352.01 253.29 357.57 254.19 358.34 259.79 362.68 264.51 366.22 269.27 369.72 275.03 373.84 280.84 377.89 282.79 379.22 284.83 380.44 284.87 380.39 283.01 378.94 274.35 372.82 266.73 367.25 259.2 361.55 254.56 357.92 253.66 357.15 247.59 351.56 241.6 345.9 235.67 340.17 229.82 334.38 223.2 327.68 216.65 320.93 210.96 314.99 206.19 309.8 202.92 306.42ZM201.68 307.57L202.51 308.41 203.45 309.14 204.17 310.09 209.76 316.14 218.72 325.51 226.1 333.13 242.69 349.94 249.4 356.62 252.8 359.91 260.01 366.05 267.32 372.05 275.65 378.69 291.44 391.12 298.93 396.92 305.55 401.89 309.38 404.67 312.4 406.55 312.45 406.48 309.7 404.24 303.06 399.29 296.52 394.22 275.25 377.3 268.81 372.11 263.34 367.61 257.92 363.04 253.45 359.17 250.07 355.87 243.4 349.17 226.89 332.32 219.54 324.69 210.62 315.32 205.84 310.13 205.02 309.29 204.09 308.54 203.39 307.59 202.57 306.75ZM201.23 307.99L202.06 308.83 202.98 309.58 204.52 311.37 209.32 316.57 215.05 322.51 221.65 329.25 228.33 335.92 235.08 342.52 241.06 348.23 247.98 354.66 253.25 359.41 259.69 364.6 267.14 370.43 274.66 376.16 283.2 382.49 292.77 389.4 302.42 396.19 312.15 402.86 316.14 405.39 316.17 405.35 312.34 402.6 304.58 397.24 296.87 391.8 289.22 386.29 281.61 380.7 274.06 375.03 266.57 369.27 260.09 364.14 253.67 358.93 248.42 354.17 241.53 347.72 235.57 342.01 228.83 335.4 222.18 328.72 215.6 321.97 209.88 316.03 205.09 310.83 203.36 309.23 202.64 308.29 201.81 307.45ZM200.56 308.61L201.39 309.46 202.31 310.21 203.04 311.14 208.67 317.19 210.32 318.89 214.47 323.08 219.52 328.05 224.63 332.95 231.53 339.4 238.49 345.79 244.63 351.33 249.07 355.22 252.66 358.29 255.45 360.48 259.23 363.33 264.02 366.8 269.83 370.89 272.78 372.87 272.79 372.85 262.32 365.16 258.55 362.31 254.82 359.4 252.99 357.91 251.21 356.36 245.06 350.86 238.98 345.26 232.1 338.81 225.26 332.31 220.18 327.38 215.17 322.39 211.05 318.18 209.41 316.48 203.81 310.42 202.89 309.67 202.16 308.73 201.34 307.89ZM200.04 309.1L200.87 309.94 201.81 310.69 203.33 312.49 208.15 317.69 213.92 323.63 218.91 328.66 228.21 337.75 247 355.76 252.17 360.64 258.41 366.09 262.94 369.91 266.76 372.73 266.82 372.66 263.3 369.48 257.9 364.87 252.58 360.17 247.44 355.27 229.59 338.02 221.99 330.59 215.32 323.89 208.75 317.11 203.95 311.91 202.2 310.31 201.49 309.36 200.67 308.52ZM199.57 309.54L200.39 310.39 201.28 311.18 202.05 312.08 207.69 318.14 212.66 323.2 220.22 330.7 227.04 337.26 234.84 344.51 243.65 352.41 252.57 360.18 255.42 362.32 255.46 362.27 252.84 359.87 245.74 353.62 238.72 347.29 231.77 340.87 225.77 335.17 219.01 328.56 212.35 321.85 208.23 317.62 203.42 312.41 202.6 311.56 201.72 310.76 200.96 309.86 200.13 309.01ZM258.16 364.58L260.83 366.9 262.66 368.41 269.13 373.57 272.9 376.45 272.91 376.42 261.93 367.44 258.19 364.53ZM198.95 310.12L199.77 310.97 200.68 311.74 201.43 312.66 207.08 318.72 222.72 334.91 234.35 346.76 250.27 362.8 267.35 379.46 279.46 391.04 285.59 396.77 290.9 401.64 297.15 407.26 302.57 412.03 302.57 412.03 291.06 401.43 285.81 396.49 279.74 390.68 267.75 378.97 250.84 362.15 234.23 345.16 223.5 334.11 207.95 317.88 202.33 311.81 201.43 311.04 200.68 310.12 199.86 309.27ZM198.18 310.84L199 311.69 199.96 312.42 201.48 314.24 206.32 319.45 208.83 321.98 215.58 328.64 222.47 335.17 227.73 339.96 233.08 344.65 239.39 350.05 250.25 359.23 255.69 363.8 260.27 367.56 264.91 371.24 268.69 374.11 272.52 376.91 277.36 380.33 291.01 389.75 294.95 392.39 294.97 392.35 291.21 389.49 273.79 377.22 269.97 374.42 267.14 372.27 262.49 368.6 257.92 364.85 242.59 351.81 235.4 345.64 230.05 340.96 224.78 336.19 220.46 332.14 214.5 326.38 207.79 319.68 202.14 313.62 200.37 312.03 199.67 311.06 198.85 310.21ZM197.7 311.28L199.39 312.95 205.85 319.9 209.2 323.27 213.45 327.42 217.75 331.51 222.97 336.35 227.37 340.33 232.71 345.05 238.11 349.69 243.56 354.27 258.27 366.25 263.84 370.68 269.44 375.06 275.09 379.37 280.79 383.62 280.79 383.62 275.14 379.31 269.54 374.94 263.97 370.52 258.44 366.05 243.83 353.98 238.4 349.37 233.03 344.71 227.72 339.97 223.34 335.98 218.14 331.12 213.86 327.01 209.63 322.86 206.29 319.49 201.45 314.27 200.63 313.41 199.77 312.6 198.15 310.86ZM197.11 311.83L197.94 312.68 198.89 313.41 199.63 314.35 200.42 315.24 205.27 320.46 208.65 323.81 212.09 327.09 216.47 331.11 220.92 335.06 225.43 338.93 230.91 343.5 237.39 348.72 243.93 353.86 257.13 363.95 262.81 368.23 269.53 373.1 275.37 377.16 277.35 378.46 280.48 380.22 280.56 380.12 277.77 377.94 271.96 373.87 268.11 371.1 263.36 367.59 258.64 364.01 241.77 350.95 235.29 345.77 228.87 340.48 224.35 336.64 219.88 332.73 215.47 328.75 212.01 325.51 208.59 322.21 206.07 319.69 201.23 314.47 200.38 313.64 199.46 312.88 198.76 311.91 197.94 311.06ZM196.65 312.26L197.47 313.12 198.41 313.87 199.14 314.82 204.83 320.89 206.5 322.58 214.98 330.92 224.41 339.99 231.34 346.5 238.39 352.9 243.75 357.61 246.62 359.74 246.7 359.66 244.2 357.11 237.14 350.74 231.06 345.07 225.06 339.31 218.25 332.68 211.49 326.01 205.63 320.12 199.97 314.03 199.04 313.28 198.32 312.33 197.49 311.47ZM252.86 365.25L255.39 367.78 256.27 368.59 262.46 374.16 266.06 377.27 266.09 377.24 262.67 373.92 256.56 368.25 255.67 367.45 252.92 365.19ZM195.94 312.92L196.76 313.78 197.73 314.51 199.25 316.35 204.12 321.57 209.24 326.56 212.72 329.81 217.13 333.82 221.6 337.76 226.13 341.64 233.46 347.72 241.85 354.39 251.31 361.61 258.75 367.52 265.33 372.58 267.23 374.01 271.18 376.68 271.24 376.6 267.6 373.57 260.11 367.76 251.78 361.09 245.17 356.02 238.64 350.87 231.26 344.85 224.91 339.47 220.43 335.56 216.88 332.39 212.5 328.36 209.04 325.09 204.8 320.92 199.94 315.69 198.16 314.1 197.46 313.12 196.64 312.27ZM195.46 313.36L196.29 314.22 197.18 315.02 197.95 315.93 203.66 322.02 204.5 322.86 208.79 327 213.18 331.04 217.65 334.99 223.12 339.61 228.68 344.13 235.26 349.28 242.86 355.05 251.49 361.41 256.18 365.05 259.97 367.91 263.81 370.72 267.69 373.46 273.59 377.47 281.53 382.68 299.46 394.24 303.52 396.69 303.54 396.66 300.61 394.68 276.83 379.11 271.9 375.79 267.03 372.4 263.18 369.63 259.37 366.79 255.61 363.9 251.88 360.97 243.28 354.58 234.77 348.06 228.22 342.88 222.7 338.34 217.27 333.68 212.83 329.71 208.47 325.65 205.05 322.33 204.21 321.48 198.53 315.39 197.63 314.59 196.87 313.68 196.04 312.82ZM195.03 313.77L198.35 317.2 203.23 322.43 209.21 328.26 213.56 332.35 218.83 337.18 223.29 341.16 227.79 345.07 232.34 348.93 237.86 353.48 242.5 357.22 249.99 363.12 263.55 374.71 269.02 379.3 274.53 383.83 280.1 388.3 284.79 391.97 289.52 395.57 294.31 399.11 294.31 399.11 284.88 391.85 280.23 388.14 275.62 384.38 270.14 379.81 264.7 375.2 250.32 362.75 242.87 356.8 237.33 352.29 231.85 347.7 227.33 343.82 222.86 339.88 218.44 335.88 213.2 331.02 208.88 326.91 203.78 321.9 198.91 316.67 195.6 313.23ZM194.25 314.49L195.08 315.36 196.01 316.11 196.76 317.05 197.57 317.93 202.47 323.17 205.89 326.5 210.26 330.57 214.71 334.57 220.14 339.27 225.66 343.85 231.27 348.33 235.05 351.25 239.83 354.85 250.46 362.59 258.8 369.29 266.27 375.16 272.89 380.2 278.63 384.42 285.44 389.21 292.34 393.84 300.34 398.98 310.42 405.25 310.42 405.25 299.45 398.2 292.51 393.63 285.65 388.93 278.9 384.09 273.2 379.82 266.63 374.73 259.2 368.81 250.92 362.06 240.35 354.27 235.6 350.66 231.83 347.72 226.25 343.22 220.76 338.62 215.36 333.92 210.93 329.91 206.58 325.83 203.17 322.49 198.29 317.25 197.44 316.41 196.53 315.63 195.8 314.68 194.98 313.82ZM193.68 315.02L194.51 315.88 195.4 316.69 196.18 317.6 201.91 323.7 207.85 329.6 213.85 335.44 219.04 340.39 225.15 346.12 247.09 366.42 252.89 372.52 258.75 378.58 274.04 394.03 279.13 399.23 291.8 412.46 291.8 412.46 284.27 404.4 278.4 398.21 258.16 377.41 253.17 372.19 247.41 366.05 225.58 345.66 214.33 334.95 208.35 329.11 202.43 323.2 197.54 317.96 196.71 317.09 195.83 316.28 195.05 315.38 194.23 314.52ZM193.5 315.19L194.33 316.05 195.24 316.84 196.83 318.63 202.57 324.73 207.64 329.8 212.8 334.8 218.9 340.54 225.06 346.21 231.28 351.81 237.57 357.34 243.01 362.01 247.6 365.84 252.26 369.59 256.98 373.26 262.72 377.56 268.55 381.75 272.5 384.46 275.56 386.36 275.6 386.31 272.73 384.17 266.88 380.02 263.02 377.21 259.19 374.34 255.4 371.42 250.73 367.71 247.03 364.68 242.46 360.83 237.05 356.13 230.79 350.58 224.59 344.96 218.46 339.28 212.39 333.52 207.25 328.51 203.04 324.27 197.31 318.18 195.57 316.53 194.82 315.6 193.99 314.73ZM192.71 315.92L193.54 316.79 194.42 317.6 195.21 318.51 200.96 324.62 205.97 329.77 211.88 335.73 218.71 342.44 228.23 351.57 237.82 360.62 245.75 367.94 252.91 374.33 258.36 379.04 263.87 383.67 269.46 388.22 276.02 393.45 307.17 417.96 311.94 421.61 315.8 424.48 317.75 425.88 319.76 427.21 319.79 427.17 316.94 424.94 310.23 419.88 305.48 416.19 273.53 390.81 267.93 386.29 263.31 382.47 258.73 378.6 253.3 373.88 246.17 367.47 239.13 360.96 228.69 351.08 219.2 341.94 212.38 335.22 206.48 329.27 201.49 324.11 196.58 318.86 195.75 318 194.87 317.18 193.26 315.41ZM191.93 316.66L192.76 317.52 193.72 318.26 194.47 319.21 195.26 320.11 200.19 325.36 205.2 330.53 210.28 335.63 216.29 341.49 232.75 357.28 237.1 361.41 240.62 364.68 246 369.48 251.52 374.12 264.65 384.62 271.13 389.96 272.07 390.71 274.98 392.84 275.06 392.75 272.49 390.19 271.59 389.39 266.07 384.78 254.87 375.74 250.24 371.92 245.69 368.01 240.36 363.18 233.41 356.56 217.02 340.75 211.03 334.88 203.46 327.19 200.98 324.6 196.07 319.35 195.2 318.52 194.27 317.74 193.57 316.76 192.74 315.9ZM191.4 317.14L192.23 318.01 193.19 318.76 193.92 319.72 200.51 326.71 204.76 330.96 209.07 335.15 214.3 340.1 219.6 344.98 224.95 349.8 231.26 355.35 237.64 360.82 243.16 365.44 250.58 371.52 256.21 376.01 262.86 381.14 269.6 386.14 271.55 387.54 274.64 389.42 274.7 389.34 271.95 387.03 267.15 383.46 262.39 379.82 257.68 376.13 252.08 371.62 244.7 365.51 240.12 361.65 234.67 356.96 229.26 352.22 223.9 347.42 218.6 342.57 213.35 337.65 209.02 333.5 204.74 329.29 201.37 325.89 194.77 318.92 193.83 318.16 193.12 317.18 192.29 316.32ZM190.82 317.69L191.65 318.56 192.55 319.36 193.32 320.29 199.1 326.41 203.27 330.74 210 337.61 217.63 345.29 223.61 351.22 228.79 356.26 234.02 361.23 238.45 365.31 243.84 370.12 251.27 376.25 280.39 399.58 283.31 401.69 283.36 401.64 280.65 399.24 254.5 378.02 248 372.67 243.41 368.78 238.07 363.93 233.68 359.82 228.49 354.81 223.35 349.75 217.4 343.8 210.65 336.96 203.95 330.07 199.79 325.74 194.03 319.62 193.13 318.82 192.36 317.89 191.53 317.02ZM190.28 318.19L191.11 319.06 192.04 319.83 192.79 320.79 198.57 326.92 202.78 331.22 207.03 335.47 211.33 339.68 215.68 343.84 220.09 347.94 223.66 351.17 228.17 355.16 232.73 359.08 238.25 363.73 244.74 369.09 250.4 373.57 256.11 377.98 259.2 379.9 259.29 379.8 256.63 377.37 250.95 372.93 245.33 368.43 237.95 362.26 229.75 355.22 222.58 348.82 219.05 345.56 214.68 341.42 206.96 333.85 200.22 327 193.62 320 192.69 319.23 191.95 318.28 191.12 317.4ZM189.72 318.71L190.55 319.59 191.52 320.33 192.27 321.28 193.06 322.19 198.02 327.45 202.23 331.75 208.21 337.7 216.01 345.24 223 351.87 229.2 357.58 235.53 363.16 241.05 367.82 247.62 373.12 269.36 390.25 275.08 394.65 279.91 398.23 284.84 401.68 289.85 405.02 294.93 408.24 308.22 416.48 308.22 416.48 294.06 407.4 290.04 404.77 285.07 401.38 280.18 397.88 275.39 394.26 270.66 390.55 248.15 372.51 241.63 367.17 236.14 362.48 229.86 356.87 223.7 351.13 216.75 344.47 209 336.91 203.05 330.96 198.85 326.64 193.92 321.38 193.04 320.55 192.11 319.77 191.41 318.78 190.58 317.91ZM189.17 319.23L190 320.1 190.93 320.88 192.51 322.7 197.48 327.97 202.53 333.15 208.52 339.1 214.62 344.94 220.83 350.66 228.05 357.05 237.21 364.89 241.02 367.86 241.07 367.8 237.52 364.55 230.22 358.26 223.9 352.67 218.55 347.8 213.29 342.85 208.1 337.81 202.15 331.83 197.96 327.51 193.01 322.24 191.24 320.59 190.5 319.63 189.67 318.76ZM244.7 370.96L246.44 372.64 250.12 375.75 258.45 382.68 264.99 387.99 269.73 391.71 273.56 394.63 277.43 397.5 281.36 400.29 281.36 400.28 274.59 395.27 270.77 392.33 267 389.34 258.63 382.47 246.68 372.36 244.75 370.91ZM188.46 319.89L189.29 320.76 190.2 321.57 190.98 322.49 196.78 328.64 205.13 337.36 211.03 343.43 216.13 348.58 223.88 356.21 241.24 373.08 255.73 387.83 262.63 394.72 267.02 398.96 270.57 402.31 271.47 403.13 274.27 405.47 274.32 405.41 271.73 402.8 265.55 396.91 260.34 391.77 255.2 386.58 240.75 371.81 223.43 354.93 214.86 346.42 209.78 341.25 204.75 336.04 197.25 328.19 192.28 322.92 191.44 322.06 190.54 321.25 189.77 320.31 188.94 319.44ZM187.97 320.34L189.66 322.07 196.31 329.09 202.2 335.17 208.15 341.18 213.32 346.27 222.09 354.6 241.62 372.65 249.45 380.24 254.72 385.25 260.97 391 267.36 396.59 274.82 402.79 279.54 406.6 281.46 408.08 281.47 408.06 272.2 400.24 266.69 395.48 261.29 390.61 255.99 385.63 250.76 380.56 241.27 371.22 222.78 353.85 217.55 348.85 213.23 344.63 208.1 339.52 202.2 333.47 197.18 328.25 193.88 324.73 188.88 319.49ZM187.36 320.91L188.19 321.79 189.07 322.62 189.88 323.53 202.35 336.72 209.05 343.71 226.89 361.87 240.44 375.83 246.45 381.88 251.7 386.97 257.95 392.76 271.6 404.93 277.94 410.67 279.84 412.21 279.89 412.14 278.21 410.32 275.54 407.8 271.04 403.68 260.17 393.9 255.69 389.77 251.28 385.58 246.07 380.45 240.11 374.37 226.63 360.37 209.72 343.04 203.87 336.91 192.28 324.58 190.61 322.84 189.73 322 188.1 320.22ZM186.81 321.42L187.64 322.3 188.61 323.05 190.17 324.91 195.17 330.19 203.57 338.92 210.36 345.84 218.95 354.39 223.3 358.61 227.69 362.79 235.71 370.19 247.44 380.72 259.29 391.14 281.28 410.32 281.28 410.31 246 378.68 235.27 368.87 227.33 361.39 218.66 352.94 210.14 344.33 200.05 333.89 190.9 324.23 189.09 322.61 188.38 321.61 187.55 320.73ZM186.42 321.79L187.25 322.67 188.19 323.45 189.78 325.28 197.28 333.2 202.34 338.44 207.45 343.61 212.65 348.7 217.93 353.7 224.18 359.44 231.41 365.9 240.53 373.88 249.82 381.67 257.31 387.83 263 392.35 268.78 396.76 274.66 401.03 280.65 405.15 286.74 409.14 293.92 413.66 293.92 413.66 285.78 408.39 279.75 404.34 273.81 400.15 268.95 396.55 263.2 392.1 257.54 387.54 250.09 381.35 240.86 373.51 231.78 365.49 224.58 359.01 218.36 353.25 213.1 348.23 207.93 343.13 202.83 337.95 197.79 332.71 190.3 324.79 188.52 323.14 187.78 322.17 186.95 321.29ZM185.87 322.3L186.7 323.18 187.59 324.01 188.39 324.93 194.24 331.09 205.15 342.48 213.64 351.16 224.77 362.38 234.24 371.84 240.33 377.81 247.39 384.53 250.19 386.87 250.25 386.8 247.72 384.14 240.69 377.39 234.64 371.39 215.84 352.38 203.16 339.33 189.81 325.26 188.97 324.38 188.07 323.56 186.45 321.75ZM254.68 390.99L256.39 392.74 259.11 395.2 262.78 398.41 265.65 400.67 265.69 400.63 263.02 398.11 257.56 393.25 254.73 390.93ZM185.3 322.83L197.89 336.01 205.52 343.83 213.29 351.52 221.21 359.07 238.1 374.81 242.58 378.92 247.1 382.99 251.7 386.97 255.42 390.1 260.13 393.94 264.9 397.72 264.9 397.72 255.55 389.94 251.87 386.76 247.33 382.72 239.3 375.28 220.8 357.73 212.96 350.12 206.11 343.24 199.36 336.26 185.99 322.19ZM184.69 323.4L185.52 324.28 186.4 325.13 187.21 326.03 197.29 336.59 206.63 346.16 214.41 353.87 223.22 362.27 237.49 375.51 247.25 384.69 254.47 391.25 259.99 396.05 266.53 401.53 273.12 406.94 274.09 407.69 276.08 409.1 276.13 409.03 274.35 407.34 273.43 406.54 265.92 400.33 261.27 396.4 256.67 392.41 253.04 389.16 247.66 384.21 238.82 375.84 221.05 359.24 214.05 352.49 206.32 344.76 197.01 335.16 188.63 326.36 186.91 324.65 185.27 322.85ZM183.93 324.1L184.77 324.99 185.68 325.8 186.46 326.74 190.67 331.14 206.53 348.01 215.78 357.73 224.27 366.51 232.89 375.18 235.51 377.76 238.16 380.29 250.69 391.97 267.86 407.71 269.69 409.36 272.49 411.74 272.51 411.71 269.86 409.13 259.08 399.1 243.92 384.84 236.84 378.09 233.38 374.64 225.67 366.79 217.22 357.98 208.02 348.22 191.41 330.43 187.21 326.03 186.3 325.22 185.52 324.28 184.69 323.39ZM183.16 324.82L183.99 325.71 184.93 326.5 185.69 327.46 191.58 333.64 197.52 339.78 202.65 344.99 211.32 353.57 215.71 357.8 220.15 361.99 224.64 366.11 228.27 369.37 231.93 372.59 236.56 376.56 241.26 380.44 246 384.28 247 384.99 249.06 386.33 249.14 386.23 246.51 383.69 238.08 376.68 230.75 370.27 224.44 364.53 218.23 358.69 210.38 351.03 202.65 343.27 195.87 336.28 186.64 326.57 185.7 325.79 184.95 324.82 184.12 323.93ZM182.81 325.14L183.65 326.03 184.56 326.85 185.34 327.79 201.37 344.55 208.21 351.52 215.14 358.4 223.91 366.91 233.66 376.16 245.29 387 248.1 389.35 248.15 389.29 245.59 386.64 234.07 375.69 225.29 367.21 219.18 361.23 213.13 355.21 207.14 349.13 201.2 343 187.79 328.84 186.1 327.08 185.18 326.27 184.41 325.32 183.58 324.43ZM250.8 391.84L253.42 394.43 257.05 397.72 264.38 404.22 269.94 409.04 269.94 409.04 261.75 401.64 253.63 394.17 250.84 391.79ZM182.2 325.71L183.04 326.6 184.04 327.34 184.79 328.31 185.59 329.24 194.02 338.08 209.1 354.12 215.04 360.29 220.2 365.51 228.04 373.26 231.73 376.49 231.81 376.4 229.39 373.6 228.56 372.7 219.1 363.11 212.33 356.04 196.54 339.03 189.03 331.02 186.5 328.38 185.6 327.55 184.65 326.76 183.97 325.74 183.13 324.85ZM234.32 379.1L236.72 381.94 248.65 394.41 254.71 400.58 259.15 404.86 259.15 404.86 254.82 400.45 251.4 396.87 237.11 381.49 234.39 379.02ZM181.77 326.11L182.61 327.01 183.51 327.84 184.31 328.77 189.38 334.07 201.05 346.6 208.61 354.62 225.59 372.32 233.3 380.27 238.5 385.51 245.49 392.45 252.56 399.33 257.92 404.43 262.44 408.63 267.91 413.63 273.43 418.59 291.96 435.03 314.28 454.96 321.84 461.53 327.6 466.34 327.61 466.33 320.01 459.8 313.43 454 292.12 434.81 271.81 416.65 261.79 407.47 257.29 403.25 251.95 398.13 245.79 392.09 237.95 384.26 233.63 379.88 225.95 371.93 209.01 354.21 201.47 346.18 189.82 333.65 184.75 328.35 183.84 327.52 183.06 326.59 182.22 325.69ZM181.28 326.57L182.11 327.47 183.03 328.29 183.82 329.22 192.28 338.07 199.18 345.02 202.68 348.43 207.12 352.64 211.61 356.8 216.14 360.91 221.63 365.78 226.25 369.78 230.91 373.73 235.62 377.63 240.38 381.46 245.21 385.21 250.09 388.88 254.05 391.76 254.05 391.75 249.18 388.08 244.35 384.33 240.53 381.29 235.81 377.42 231.14 373.48 226.52 369.49 221.93 365.45 216.48 360.54 211.98 356.41 207.52 352.23 203.11 348 199.62 344.57 193.61 338.48 185.17 329.63 184.31 328.76 183.4 327.94 182.63 326.98 181.8 326.09ZM180.72 327.09L181.56 327.99 182.47 328.81 183.26 329.75 191.74 338.6 197.75 344.71 204.74 351.58 212.74 359.16 221.77 367.43 230.94 375.53 242.11 385.07 245.88 388.19 248.76 390.46 248.78 390.44 238.59 381.66 228.49 372.77 220.34 365.37 212.3 357.84 204.38 350.2 197.45 343.28 192.33 338.02 183.89 329.16 182.97 328.35 182.19 327.39 181.36 326.5Z"></path><path d="M300.13 393.35L302.02 394.76 306.96 397.98 311.99 401.07 317.09 404.05 317.09 404.05 309.06 399.1 306.08 397.19 302.16 394.58 300.16 393.32ZM286.78 381.76L289.64 383.82 293.63 386.36 293.66 386.31 289.81 383.61 286.81 381.72ZM295.6 387.65L299.47 390.32 308.4 396.02 317.39 401.61 325.44 406.47 325.44 406.47 313.47 399.03 306.54 394.6 298.64 389.47 295.63 387.61ZM268.61 374.21L272.21 377.28 275.04 379.43 291.23 391.4 298.79 397.1 302.6 399.91 302.63 399.87 298.96 396.88 292.38 391.84 278.17 381.21 272.52 376.9 268.66 374.14ZM301.65 397.22L303.53 398.66 308.37 402.04 312.31 404.65 316.32 407.16 316.32 407.16 310.39 403.27 303.63 398.52 301.67 397.19ZM302.86 393.64L305.85 395.52 307.95 396.64 315.3 400.5 318.56 402 318.6 401.94 315.55 400.15 306.16 395.11 302.91 393.57ZM325.91 405.79L327.96 406.94 331.16 408.49 331.18 408.45 328.09 406.76 325.94 405.75ZM275.95 380.19L277.75 381.74 283.55 385.85 290.4 390.55 297.32 395.13 303.31 398.96 309.35 402.7 315.45 406.35 321.6 409.92 321.6 409.91 315.51 406.27 310.46 403.18 305.45 400.04 300.47 396.83 295.53 393.57 289.65 389.58 283.82 385.51 278.05 381.37 276.01 380.12ZM308.55 399.79L311.58 401.64 315.7 403.97 319.88 406.21 324.11 408.37 324.11 408.37 320.96 406.72 316.8 404.46 308.57 399.77ZM277.54 387.7L281.43 390.46 289.45 395.66 313.56 411.04 317.59 413.57 320.65 415.4 320.67 415.38 292.66 397.34 280.66 389.52 277.58 387.64ZM276.8 394.41L279.39 396.95 280.28 397.76 283.03 400.08 287.7 403.87 292.49 407.5 296.41 410.28 300.4 412.97 310.47 419.53 314.53 422.1 314.57 422.05 310.71 419.2 298.7 411.22 295.74 409.16 292.83 407.05 288.07 403.39 284.35 400.35 280.69 397.23 276.87 394.31ZM278.56 392.18L281.41 394.36 283.37 395.74 289.39 399.68 296.49 404.15 302.63 407.89 308.81 411.55 316.06 415.75 322.31 419.27 322.31 419.27 309.97 411.98 300.78 406.38 291.68 400.61 287.68 397.98 282.71 394.63 278.62 392.1ZM286.15 403.92L287.97 405.51 289.88 406.97 294.72 410.55 298.65 413.33 301.63 415.37 305.64 418.03 309.7 420.62 314.82 423.79 314.82 423.79 306.73 418.57 300.75 414.53 295.85 411.04 291.99 408.17 288.17 405.25 286.19 403.88ZM262.1 382.05L263.86 383.68 264.83 384.4 270.76 388.51 277.79 393.16 291.96 402.22 301.08 407.98 307.22 411.72 308.26 412.33 310.39 413.45 310.41 413.41 308.42 412.1 304.34 409.59 299.28 406.39 282.18 395.31 277.17 392.01 272.18 388.66 264.31 383.15 262.18 381.95ZM312.47 414.64L314.51 415.88 318.74 418.16 324.08 420.89 329.47 423.54 329.48 423.54 322.01 419.71 314.63 415.72 312.49 414.61ZM282.46 412.78L285.12 415.32 291.56 420.95 294.4 423.26 294.43 423.22 291.77 420.66 289.02 418.24 285.35 415.01 282.5 412.73ZM307.08 434.92L309.71 437.56 313.33 440.93 313.35 440.9 309.84 437.38 307.1 434.88ZM281.61 413.9L284.16 416.6 293 425.19 297.46 429.45 302.01 433.62 305.72 436.87 310.45 440.8 315.27 444.62 321.12 449.12 321.12 449.12 314.36 443.78 310.54 440.67 306.77 437.5 303.07 434.25 299.43 430.91 295.86 427.5 284.42 416.26 281.66 413.84ZM268.43 403.05L271.16 405.49 273.03 407.07 280.57 413.25 284.41 416.27 284.43 416.25 280.71 413.08 272.27 406.05 268.47 403ZM277.95 410.66L281.58 413.94 291.85 422.61 297.5 427.31 302.28 431.12 306.16 434.1 311.08 437.72 329.05 450.41 329.07 450.39 325.15 447.44 310.25 436.77 306.34 433.84 303.43 431.6 299.61 428.56 295.83 425.45 281.86 413.57 278 410.59ZM253.82 390.13L256.53 392.58 257.47 393.35 272.87 405.28 278.7 409.69 283.59 413.3 287.55 416.14 291.55 418.91 291.56 418.9 285.66 414.6 279.84 410.2 271.2 403.47 257.87 392.87 256.9 392.13 253.89 390.04Z" fill-opacity="0.92"></path><path d="M315.31 408.59L318.12 410.75 320.08 412.09 336.82 423.22 350.57 432.45 355.51 435.7 355.51 435.69 336.97 422.99 318.38 410.39 315.35 408.52ZM329.96 414.39L333.92 416.94 338.96 420 345.05 423.59 350.16 426.5 350.17 426.5 341.04 421.12 329.98 414.36ZM335.35 410.64L338.45 412.31 344.75 415.48 347.92 417.03 347.93 417.02 338.55 412.16 335.37 410.61ZM321.72 428.6L325.6 431.44 328.59 433.46 333.61 436.76 337.69 439.3 337.7 439.28 321.75 428.56ZM343.76 443.19L345.75 444.53 353.84 449.72 362.01 454.77 362.01 454.77 353.88 449.65 346.83 445.07 343.77 443.17ZM327.04 431.46L329.84 433.74 331.77 435.18 333.73 436.57 333.75 436.54 329.96 433.57 327.06 431.42Z" fill-opacity="0.83"></path></g><path data-id="wS6" d="M127.65 503.89L127.85 504.27 128.72 505.27 129.38 506.39 130.15 507.44 130.56 508.21 131.54 509.64 132.65 510.99 133.1 511.73 133.9 512.76 134.5 513.93 134.77 514.27 135.1 514.58 135.48 514.8 135.91 514.88 136.36 514.89 136.8 514.79 137.18 514.55 137.47 514.23 137.68 513.89 137.77 513.53 137.66 512.69 137.24 511.47 136.91 510.22 136.6 509.42 136.09 507.77 135.69 506.09 135.18 504.9 134.96 504.07 134.78 503.68 134.33 502.92 134.19 502.51 134.04 501.65 133.9 501.25 133.5 500.48 133.11 499.24 132.43 498.13 132.24 497.74 131.89 496.95 131.48 496.19 130.98 494.99 130.06 493.04 129.37 491.92 128.93 490.71 128.49 489.96 128.33 489.56 128.13 488.7 127.96 488.31 127.46 487.58 127.26 487.2 126.98 486.38 126.34 485.24 125.96 484 125.16 482 124.58 480.84 124.26 480.04 123.71 478.87 123.44 477.6 123.18 476.79 123.16 476.36 123.26 475.5 123.22 475.07 122.67 473.45 122.47 473.07 122.21 472.72 121.9 472.41 120.94 471.52 120.54 471.32 120.1 471.2 119.2 471.24 117.9 471.44 116.65 471.86 115.85 472.24 115.48 472.49 114.51 473.41 114.32 473.81 114.19 474.24 114.25 474.68 114.11 475.09 113.52 476.25 113.46 476.67 113.46 477.53 113.09 478.78 112.97 479.63 112.86 480.05 112.34 481.24 112.08 482.06 111.48 483.22 110.76 484.78 110.6 485.18 110.23 486.43 109.87 487.21 109.5 488.45 108.83 489.58 108.67 489.99 108.46 490.82 107.86 491.98 107.52 493.24 106.87 494.37 106.38 495.57 105.99 496.34 104.79 499.58 104.34 500.32 103.65 501.88 103.2 502.63 103.06 503.04 102.89 503.9 102.72 504.29 102.28 505.05 101.9 506.29 101.29 507.44 100.98 508.7 100.32 510.75 99.01 513.96 99.05 514.42 99.47 514.63 99.9 514.6 100.33 514.51 100.75 514.33 101.06 514.01 101.4 513.21 101.63 512.84 102.22 512.18 102.46 511.82 102.79 511.01 102.99 510.63 103.49 509.92 104.02 508.72 104.76 507.65 105.88 505.79 106.82 503.85 107.16 503.02 108.06 502.84 108.96 502.88 110.3 502.8 111.19 502.91 111.63 502.91 112.52 502.73 112.97 502.69 113.86 502.79 114.31 502.8 115.2 502.74 116.54 502.85 120.11 502.57 121.45 502.61 122.34 502.55 123.67 502.63 125.01 502.59 125.9 502.71 126.34 502.69 126.78 502.58 127.14 502.67 127.34 503.07ZM117.47 481.07L117.79 482.33 118.48 483.45 118.96 484.65 119.4 485.4 120.05 487 120.77 488.57 121.37 489.73 121.78 490.95 122.15 491.73 122.47 493 122.66 493.39 123.16 494.11 123.65 495.31 124.36 496.41 124.74 497.66 125.31 498.82 125.46 499.22 125.43 499.5 124.11 499.66 121.88 499.76 120.54 499.68 119.21 499.81 118.31 499.77 117.87 499.8 116.98 499.99 116.53 500.02 115.19 499.87 114.3 499.95 113.86 499.93 112.96 499.79 112.52 499.79 111.63 499.91 110.29 499.9 109.85 499.86 109 499.6 108.93 499.34 109.34 498.57 110.05 497 110.41 495.75 110.56 495.35 110.99 494.59 111.42 493.37 112.14 492.27 112.3 491.86 112.52 491.02 113.11 489.87 113.51 488.63 114.13 487.49 114.91 485.48 115.14 484.65 115.6 483.44 115.85 482.62 116.03 482.22 116.49 481.47 116.67 481.08 116.89 480.25 117.07 480.3 117.23 480.71ZM163.65 482.43L164.61 483.34 165.39 484.39 166.28 485.35 167.06 486.4 168.19 487.72 169.1 488.67 169.84 489.75 170.4 490.41 171.04 491.56 171.32 491.9 171.97 492.49 172.75 493.54 173.73 494.43 174.46 495.52 175.36 496.47 176.19 497.48 176.81 498.1 177.92 499.44 178.91 500.87 179.83 501.81 180.36 502.5 180.68 502.8 181.4 503.34 181.69 503.66 182.2 504.37 182.5 504.68 183.19 505.24 184.02 506.25 185.06 507.07 185.97 508.02 186.62 508.61 187.5 509.57 188.79 510.76 189.12 511.05 190.24 511.78 191.17 512.7 191.89 513.21 192.21 513.51 192.76 514.21 193.08 514.51 193.46 514.75 193.89 514.89 194.33 514.91 195.22 514.83 195.63 514.67 196.32 514.13 196.61 513.83 196.83 513.46 197.01 512.62 197.21 510.92 197.25 509.63 197.35 508.78 197.41 507.49 197.7 506.22 197.64 504.93 197.77 504.08 197.78 503.65 197.64 502.79 197.62 502.36 197.8 501.08 197.74 500.22 197.84 498.94 197.74 497.65 197.74 495.94 197.89 494.23 197.88 493.37 197.98 492.09 197.77 490.8 197.87 489.52 197.74 488.23 197.9 486.95 197.72 485.66 197.76 484.38 197.68 483.52 197.77 482.24 197.8 480.52 197.63 478.81 197.88 476.67 198.35 475.45 198.35 475.02 198.02 473.33 197.89 472.91 197.6 472.57 197.21 472.38 196.81 472.26 195.94 472.11 195.49 472.14 195.05 472.23 194.22 472.57 193.44 473.01 192.88 473.7 192.62 474.52 192.43 475.35 192.34 477.04 192.39 477.47 192.82 478.68 192.91 479.96 193.08 480.81 193.08 481.24 192.95 482.1 193.03 483.38 192.88 484.67 193.03 485.95 193.1 488.09 192.87 491.52 193.01 492.8 192.95 494.09 193.07 494.94 193.07 495.37 192.91 496.23 192.9 496.66 193.03 497.51 193.05 497.94 192.98 498.8 193.12 500.08 192.99 501.37 192.89 503.51 192.97 505.65 193.1 506.94 193 508.32 192.44 507.67 192.2 507.31 191.79 506.54 191.51 506.2 190.87 505.59 190.62 505.23 190.21 504.46 189.43 503.42 188.79 502.28 188.52 501.94 186.5 499.65 185.99 498.94 185.13 497.96 184.66 497.22 184.38 496.89 183.4 496 182.64 494.93 182.01 494.33 181.74 493.98 181.33 493.2 181.07 492.86 180.43 492.25 179.61 491.23 178.67 490.31 176.82 487.89 175.91 486.95 175.1 485.92 174.17 484.99 173.52 483.85 172.62 482.9 172.16 482.16 171.88 481.82 171.2 481.24 170.9 480.92 170.43 480.19 169.6 479.18 168.42 477.37 168.22 476.99 167.56 475.4 167.28 474.59 167.09 474.21 166.8 473.87 165.59 472.61 165.24 472.34 164.83 472.14 163.98 471.89 163.59 471.71 162.73 471.55 162.29 471.59 161.86 471.71 160.54 471.9 160.1 472.02 159.7 472.22 158.62 473 158.04 473.66 157.71 474.45 157.62 474.85 157.65 475.27 157.55 475.69 157.47 476.54 157.47 477.4 157.57 477.82 157.97 478.6 158.1 479.01 158.16 480.3 158.26 481.16 158.21 481.59 157.99 482.44 157.97 482.87 158.03 483.73 157.91 485.01 158.07 486.3 157.99 488.44 157.89 489.72 157.84 491.86 157.93 492.72 157.93 493.15 157.79 494.01 157.77 494.43 157.86 495.29 157.75 496.58 157.79 497.01 158 497.86 158.04 498.28 157.99 499.14 158.1 500.43 157.96 501.71 158 503.86 158.08 504.71 158.06 506 158.14 507.28 158.08 508.14 158.11 508.57 158.44 509.83 158.47 510.69 158.53 511.11 158.79 511.95 158.84 512.37 158.79 513.24 158.83 513.67 159.03 514.51 159.28 514.87 159.69 515.07 160.15 515.12 160.6 515.02 161.01 514.84 161.75 514.38 162.05 514.07 162.23 513.68 162.33 512.83 162.5 511.99 162.53 510.7 162.67 509.42 162.58 508.13 162.85 506.86 162.79 505.57 162.93 504.71 162.93 504.29 162.73 503 162.76 502.15 162.67 500.86 162.74 499.58 162.73 497.86 162.63 496.58 162.64 496.15 162.76 495.29 162.73 494.01 162.94 492.72 162.74 491.44 162.78 490.15 162.61 488.87 162.76 487.58 162.71 486.73 162.75 485.44 162.68 484.16 162.69 482.44 162.82 481.23 162.99 481.3ZM282.94 476.45L284.28 476.27 285.61 476.35 286.51 476.3 288.29 476.38 290.08 476.32 291.41 476.2 292.75 476.22 293.64 476.13 294.99 476.25 296.32 476.07 297.65 476.26 298.1 476.23 298.97 476.06 300.31 475.98 301.53 475.43 302.28 474.97 302.57 474.64 302.75 474.25 302.77 473.85 302.64 473.49 302.34 473.2 301.95 473.02 301.53 472.9 300.2 472.69 299.75 472.69 298.44 472.99 297.55 473.08 296.23 473.38 295.78 473.4 294.89 473.28 294.44 473.28 293.55 473.37 292.21 473.25 290.87 473.43 289.53 473.41 288.64 473.44 287.3 473.38 285.07 473.41 283.73 473.55 282.84 473.45 281.94 473.45 281.49 473.37 280.69 472.98 280.5 472.61 280.23 472.26 279.83 472.04 279.38 471.94 278.06 471.75 277.19 471.97 276.37 472.28 275.93 472.39 275.52 472.57 274.79 473.07 274.19 473.72 273.98 474.1 273.43 475.73 273.31 476.14 273.29 476.56 273.45 478.26 273.57 478.67 273.93 479.45 274.03 479.87 273.91 481.15 274.05 482.01 274.07 482.44 273.89 483.72 273.97 485.01 273.89 485.87 274.05 487.58 274.07 489.3 273.93 490.58 273.93 491.44 273.8 492.73 273.96 494.02 273.82 495.3 273.92 496.59 273.74 497.88 273.93 499.16 273.91 500.45 274 501.3 273.91 502.59 273.87 504.31 273.88 504.74 274.03 506.02 274.02 506.88 274.21 508.15 274.15 509.45 274.22 509.88 274.46 510.71 274.57 512 274.97 513.23 275.08 514.54 275.36 514.9 275.78 515.07 276.68 515.18 277.13 515.12 277.55 514.98 277.98 514.95 279.29 514.68 280.14 514.37 280.59 514.31 281.94 514.42 282.83 514.35 284.17 514.45 284.62 514.41 285.51 514.23 285.95 514.21 286.85 514.31 288.19 514.21 289.52 514.36 290.86 514.22 293.1 514.18 295.33 514.34 296.64 514.54 297.98 514.61 298.87 514.74 299.32 514.71 300.18 514.45 301.5 514.24 301.92 514.06 302.59 513.48 303.16 512.84 303.3 512.44 303.19 512.03 302.86 511.75 302.13 511.36 301.73 511.21 301.29 511.11 300.4 511.03 299.5 511.04 298.18 511.23 296.84 511.27 295.51 511.4 294.17 511.25 292.83 511.35 291.93 511.25 291.49 511.25 290.6 511.42 290.15 511.45 289.26 511.33 288.81 511.31 287.92 511.36 286.58 511.22 286.13 511.23 283.01 511.47 281.67 511.4 280.82 511.18 279.65 510.94 279.69 510.57 279.67 509.7 279.95 508.44 279.96 507.15 280.17 506.3 280.22 505.87 280.07 504.58 280.09 503.72 279.94 502.01 280.02 500.29 280.14 499.01 280.08 497.72 280.15 496.86 280.02 495.58 280.16 494.36 280.53 494.39 281.43 494.3 282.77 494.41 284.1 494.19 285.45 494.28 286.34 494.28 287.68 494.42 288.12 494.43 289.91 494.34 291.24 494.2 292.58 494.26 293.48 494.17 294.8 494.46 295.25 494.45 296.12 494.2 297.43 494 297.84 493.83 299.25 492.81 299.49 492.41 299.49 491.94 299.22 491.56 298.83 491.33 298.41 491.18 297.96 491.1 297.07 491.1 295.75 491.28 294.87 491.45 294.42 491.48 293.08 491.42 291.74 491.58 290.4 491.52 289.51 491.64 289.07 491.64 288.17 491.48 287.72 491.47 286.83 491.58 286.39 491.58 285.5 491.5 284.15 491.63 283.71 491.63 281.47 491.56 280.66 491.19 280.22 491.11 279.99 490.89 280 489.61 279.87 488.32 280.07 487.04 280.04 485.75 280.23 484.47 280.03 483.17 280.12 481.89 280.04 481.03 280.04 480.6 280.16 479.74 280.21 478.46 280.28 478.04 280.6 476.79 280.75 476.37 281.15 476.28 281.6 476.27 282.49 476.43ZM277.75 502.15L277.97 503.45 277.96 504.76 278.07 506.07 278.03 507.38 278.13 509.13 278.28 510.43 278.21 511.31 277.83 511.3 277.79 510.86 277.76 510.42 277.92 509.11 277.88 508.67 277.71 507.8 277.73 506.49 277.55 505.62 277.51 505.19 277.63 503.87 277.54 503 277.55 501.69 277.49 501.24 277.86 501.28ZM216.65 496.57L216.44 497.86 216.58 499.15 216.48 500.43 216.55 501.29 216.5 502.58 216.62 504.73 216.75 506.01 216.69 507.3 216.78 508.15 216.7 509.46 216.77 509.88 217.05 510.71 217.21 511.99 217.63 513.23 217.7 514.53 217.99 514.88 218.41 515.03 218.85 515.08 219.29 515.1 219.74 515.05 220.55 514.7 220.92 514.43 223.16 514.59 224.49 514.79 225.39 514.73 226.73 514.79 227.17 514.74 228.06 514.54 228.51 514.52 229.4 514.6 230.73 514.41 232.08 514.39 233.38 514.04 234.7 513.85 236.89 513.41 238.6 512.87 239.01 512.7 240.19 512.06 241.04 511.81 241.45 511.64 242.22 511.21 242.64 511.05 243.51 510.8 243.9 510.58 244.59 510.02 245.76 509.37 246.78 508.53 247.9 507.82 249.18 506.61 250.86 504.61 251.61 503.55 252.22 502.9 252.47 502.55 252.81 501.74 253.44 500.6 253.6 500.2 253.77 499.34 253.91 498.94 254.31 498.16 254.44 497.75 254.57 496.89 254.89 495.64 254.94 491.35 254.72 489.2 254.62 488.78 254.07 487.59 253.87 486.75 253.72 486.35 253.26 485.6 253.08 485.21 252.8 484.38 252.57 484.01 251.98 483.36 251.23 482.29 250.33 481.33 249.52 480.31 248.24 479.1 247.87 478.85 247.09 478.42 245.98 477.69 244.77 477.14 244.05 476.62 243.66 476.4 242.38 475.99 241.6 475.56 241.18 475.41 240.3 475.24 239.87 475.1 239.07 474.72 238.64 474.57 237.78 474.36 236.92 474.1 236.05 473.92 233.39 473.56 232.1 473.18 230.78 472.98 229.49 472.6 228.13 472.57 226.82 472.29 225.47 472.3 224.58 472.18 224.13 472.19 223.24 472.38 222.86 472.26 222.07 471.9 221.64 471.86 220.77 471.89 219.88 471.97 218.62 472.38 217.82 472.79 217.46 473.06 216.95 473.78 216.34 474.93 216.1 475.76 215.88 477.01 215.86 477.45 215.97 477.88 216.44 478.62 216.63 479.02 217.01 480.7 217.02 481.13 216.81 482.42 216.6 484.55 216.63 486.7 216.74 487.56 216.73 487.99 216.58 488.85 216.57 489.28 216.64 490.14 216.47 491.42 216.5 491.85 216.65 492.71 216.52 494 216.6 495.29 216.5 496.15ZM221.93 511.95L222.32 510.71 222.33 509.41 222.56 508.14 222.56 507.28 222.7 506 222.68 503.85 222.61 502.56 222.73 501.28 222.71 500.42 222.91 499.13 222.88 498.7 222.7 497.85 222.73 496.56 222.55 495.28 222.75 493.99 222.74 492.71 222.81 491.85 222.73 490.56 222.72 488.85 222.89 487.13 222.82 486.27 222.91 484.99 222.87 484.56 222.69 483.7 222.69 483.27 222.81 482.41 222.69 481.13 222.84 479.84 222.79 478.55 222.87 478.13 223.33 476.91 225.13 476.99 226.91 476.97 227.36 476.96 228.25 476.84 228.71 476.84 230.02 477.1 230.92 477.18 231.35 477.29 232.18 477.65 232.61 477.76 233.51 477.86 233.94 477.98 234.76 478.32 236.06 478.65 236.47 478.84 237.23 479.29 238.43 479.86 240.39 480.89 241.86 481.87 242.2 482.15 243.08 483.14 243.77 483.68 244.09 483.98 244.89 485.01 245.54 485.62 245.79 485.98 246.12 486.79 246.77 487.92 247.17 489.15 247.68 490.34 247.98 491.6 248.12 492.45 248.17 494.6 248.06 495.88 248.15 496.74 248.15 497.17 247.84 498.43 247.75 499.29 247.64 499.71 247.06 500.88 246.82 501.71 246.63 502.1 245.44 503.93 244.51 504.86 242.86 506.29 242.24 506.91 241.89 507.18 240.04 508.4 238.76 508.82 237.59 509.46 236.3 509.82 235.51 510.24 235.09 510.39 233.76 510.63 232.92 510.91 231.61 511.18 230.33 511.59 228.6 512.03 228.16 512.09 227.26 512.12 225.94 512.34 224.6 512.37 223.28 512.7 221.98 512.67ZM220.69 501.27L220.58 502.13 220.8 503.4 220.79 504.69 220.91 505.97 220.86 507.26 220.95 508.97 221.11 510.25 221.08 511.54 221.13 512.43 220.71 512.41 220.83 511.53 220.84 511.1 220.62 509.82 220.66 508.96 220.63 508.54 220.44 507.69 220.43 507.26 220.53 506.4 220.53 505.97 220.44 505.11 220.44 503.83 220.32 502.55 220.32 501.24ZM219.41 503.69L219.26 504.55 219.43 505.84 219.36 507.12 219.42 508.41 219.32 509.7 219.34 511.41 219.44 512.73 219.12 513.08 218.94 512.65 218.95 510.93 219.13 510.07 219.16 509.64 218.99 508.36 219.08 507.5 219.06 507.07 218.92 506.21 218.92 505.78 219.07 504.92 219.05 503.61ZM321.91 499.32L322.12 500.6 322.1 501.88 322.21 503.17 322.16 504.03 322.22 506.17 322.34 507.45 322.34 508.73 322.46 509.58 322.4 510.89 322.48 511.31 322.76 512.14 322.94 513.41 323.09 513.82 323.43 514.57 323.69 514.86 324.06 515.08 324.5 515.15 324.95 515.11 325.81 514.92 326.7 514.86 327.56 514.66 328.41 514.37 330.2 514.33 331.54 514.43 332.87 514.28 333.77 514.29 334.21 514.24 335.09 514.04 335.54 514.02 336.44 514.14 336.88 514.14 337.77 514.06 339.11 514.2 340.45 514.07 342.68 514.11 344.01 514.23 345.32 514.47 346.21 514.55 346.66 514.51 347.53 514.31 348.42 514.23 348.83 514.09 349.99 513.48 350.41 513.31 350.78 513.04 351.05 512.68 351.15 512.24 351.04 511.81 350.44 511.19 350.04 510.98 349.6 510.88 348.7 510.91 347.37 510.83 346.05 511.02 345.16 511.04 343.82 511.14 342.93 511.13 342.04 511.18 341.59 511.19 340.25 510.99 338.91 511.1 337.57 511.04 336.69 511.21 336.24 511.25 334.9 511.12 333.56 511.21 332.67 511.15 332.22 511.18 331.34 511.32 330 511.4 329.55 511.33 329.13 511.18 328.7 511.1 327.85 510.96 327.82 510.67 327.87 510.24 328.12 508.98 328.14 508.55 328.04 507.68 328.06 507.25 328.19 506.4 328.07 505.11 328.26 503.83 328.13 502.54 328.23 501.26 328.21 499.97 328.36 498.69 328.43 496.97 328.28 495.69 328.29 494.4 328.19 493.55 328.21 493.12 328.38 492.26 328.4 491.83 328.3 490.98 328.31 490.55 328.42 489.69 328.28 488.41 328.43 487.12 328.43 486.69 328.39 485.83 328.42 484.55 328.32 483.69 328.21 481.55 328.38 480.27 328.42 478.98 328.76 477.74 328.9 476.89 329.05 476.48 329.47 475.72 329.56 475.29 329.42 474.43 329.35 473.57 329.21 473.16 329 472.77 328.34 472.18 327.52 471.88 326.64 471.86 325.34 472.05 324.5 472.32 323.3 472.91 322.95 473.19 322.67 473.54 322.45 473.92 322.32 474.33 321.73 475.49 321.63 475.91 321.54 477.62 321.59 478.05 322.26 479.19 322.37 479.61 322.56 481.33 322.56 481.75 322.43 482.61 322.24 484.75 322.2 486.89 322.28 488.18 322.09 489.46 322.18 490.75 322.05 492.03 322.24 493.32 322.07 494.6 322.08 495.89 321.95 496.74 321.94 497.17 321.97 497.6 322.09 498.03 321.94 498.89ZM325.8 503.11L326.01 504.4 326.24 504.68 326.22 505.56 326.35 506.85 326.31 508.15 326.41 509.87 326.57 511.22 326.11 511.38 325.75 511.29 325.7 509.54 325.84 508.68 325.87 508.24 325.66 506.95 325.72 506.09 325.69 505.65 325.51 504.79 325.5 504.36 325.62 503.5 325.56 502.18 325.92 502.25ZM71.71 482.96L71.91 484.24 71.88 485.53 71.97 486.38 71.97 486.81 71.9 487.67 71.91 489.81 71.99 491.1 71.88 492.38 71.92 493.24 71.72 494.53 71.74 494.96 71.9 495.81 71.85 497.1 72.03 498.38 71.85 499.67 71.87 500.95 71.8 501.81 71.87 503.1 71.85 504.81 71.67 506.52 71.74 507.81 71.71 508.67 71.77 509.1 72.01 509.94 72.05 510.36 72 511.23 72.05 511.66 72.26 512.49 72.33 513.79 72.44 514.2 72.59 514.61 72.84 514.94 73.18 515.15 73.6 515.28 74.04 515.32 74.9 515.11 75.72 514.79 76.1 514.55 76.41 514.22 76.62 513.84 76.96 512.59 77.06 511.29 77.39 510.05 77.44 509.19 77.52 508.77 77.8 507.93 77.86 507.51 77.79 506.21 77.9 505.36 77.89 504.93 77.81 504.07 77.98 502.79 78.01 500.65 77.91 499.36 77.88 497.22 78.1 495.93 78.04 494.65 78.17 493.79 78.17 493.36 78.02 492.5 77.99 492.08 78.11 491.22 78.13 490.79 78.02 489.93 78.07 488.65 77.92 487.36 77.88 485.65 78.02 483.93 77.99 483.08 78.05 481.79 77.8 480.51 77.89 479.22 77.85 478.36 77.91 477.93 78.48 476.75 78.6 476.33 78.78 475.07 78.74 474.22 78.64 473.81 78.09 472.65 77.85 472.29 77.51 472.01 77.09 471.83 76.66 471.7 75.75 471.62 74.45 472 73.62 472.29 73.23 472.5 71.52 473.86 71.35 474.27 71.12 475.1 70.94 475.5 70.59 476.27 69.95 477.4 69.04 478.35 68.3 479.43 67.76 480.11 65.99 483.09 65.16 484.11 64.73 484.86 63.93 485.9 63.73 486.29 63.45 487.12 63.25 487.5 62.71 488.2 62.17 489.37 61.42 490.45 60.94 491.66 59.96 493.58 58.12 496.53 57.65 497.74 56.99 498.86 56.7 499.68 56.49 500.06 55.94 500.75 55.73 501.13 55.44 501.95 55.25 502.34 54.77 503.06 54.27 504.26 53.54 505.35 52.65 506.84 51.66 508.73 50.95 507.35 50.63 506.09 50.06 504.93 49.7 503.68 49.03 502.55 48.67 501.31 48.07 500.16 47.79 499.33 47.61 498.94 46.02 496.35 45.47 495.18 45.04 494.42 44.57 493.21 44.36 492.84 43.83 492.13 43.64 491.74 43.35 490.93 42.66 489.82 42.24 488.58 41.51 487.5 40.9 486.35 40.16 485.27 39.4 483.72 38.87 482.54 38.19 481.43 37.63 480.26 37.12 479.54 36.94 479.15 36.72 478.31 36.18 477.13 35.96 475.86 35.78 475.46 34.97 474.45 34.47 473.73 34.1 472.96 33.64 472.23 33.27 471.99 32.85 471.8 31.95 471.75 31.5 471.78 30.62 471.96 29.82 472.34 29.4 472.49 28.62 472.9 28.29 473.19 27.74 473.86 27.29 474.6 27.12 475.01 27.04 475.43 26.85 477.11 26.89 477.54 27.34 478.74 27.41 479.17 27.53 480.85 27.48 482.14 27.52 483 27.49 485.14 27.37 486.43 27.52 487.71 27.44 489 27.55 489.85 27.55 490.28 27.28 491.56 27.33 492.85 27.22 493.71 27.23 494.14 27.36 495 27.37 495.42 27.26 498.42 27.31 499.71 27.3 500.57 27.46 501.85 27.32 503.14 27.44 504.42 27.34 505.28 27.34 505.71 27.63 506.99 27.65 508.27 27.87 509.54 27.91 510.83 28.21 512.52 28.51 513.78 28.63 514.63 28.84 515 29.23 515.2 30.1 515.33 30.56 515.32 31.01 515.26 31.43 515.07 31.77 514.78 32.37 514.16 32.62 513.81 32.76 513.41 32.77 512.12 33.15 510.87 33.25 509.58 33.45 508.31 33.43 507.45 33.5 505.31 33.6 504.02 33.51 502.74 33.56 501.88 33.53 501.45 33.39 500.59 33.4 500.17 33.57 499.31 33.6 498.88 33.54 498.02 33.71 496.74 33.68 496.31 33.53 495.45 33.55 494.17 33.46 492.88 33.51 492.02 33.47 489.88 33.35 488.6 33.49 487.31 33.46 486.45 33.5 486.03 33.69 485.17 33.72 484.75 33.58 483.88 33.57 483.46 33.63 482.63 33.79 482.92 34.34 483.6 34.55 483.98 35.05 485.18 35.5 485.92 36.09 487.08 36.55 487.82 37.56 489.73 38.03 490.94 38.76 492.03 39.33 493.19 39.89 493.87 40.13 494.24 40.57 495.46 41.22 496.59 41.5 497.41 41.69 497.8 42.38 498.91 43.13 500.47 43.63 501.66 44.65 503.57 45.48 504.6 45.69 504.97 46.04 505.77 46.77 506.85 47.25 508.07 48.06 509.1 48.68 510.24 49.47 511.31 49.37 511.7 48.94 512.45 48.66 513.27 48.55 514.13 48.57 514.56 48.66 514.97 49.15 515.62 49.94 515.97 52.16 516 52.6 515.87 54.55 514.79 54.83 514.44 55.31 513.7 56.28 512.81 56.53 512.45 56.85 511.65 57.24 510.87 57.35 510.45 57.43 509.16 57.69 508.33 57.87 507.94 58.29 507.18 58.79 506.46 59.34 505.28 59.79 504.54 59.97 504.15 60.19 503.3 60.35 502.9 61.04 501.79 61.35 500.98 61.57 500.61 62.11 499.91 62.32 499.53 62.62 498.72 62.82 498.33 63.28 497.6 63.86 496.44 64.34 495.71 65.42 493.84 65.89 492.62 66.55 491.5 66.88 490.7 67.09 490.32 67.66 489.65 67.91 489.29 68.43 488.09 68.93 487.38 69.14 487 69.44 486.18 70.32 484.69 71.22 482.73 71.67 481.51 71.89 481.21 71.9 481.67ZM74.83 506.24L74.99 507.53 74.9 508.82 74.94 510.1 74.84 510.96 74.78 513.1 74.44 513.06 74.37 512.19 74.49 510.9 74.5 509.61 74.69 508.76 74.72 508.33 74.59 507.04 74.68 506.18 74.63 505.3 74.99 505.38ZM73.97 502.41L74.09 503.72 73.97 505.02 73.97 506.32 73.82 507.61 73.75 509.34 73.79 510.65 73.67 511.51 73.64 512.39 73.38 512.74 73.21 512.34 73.43 511.48 73.45 511.05 73.35 510.17 73.49 508.88 73.37 507.57 73.6 506.28 73.61 504.98 73.7 504.12 73.68 502.81 73.78 501.49 74.15 501.56ZM70.73 480.22L70.23 481.44 69.52 482.54 69.14 483.33 68.91 483.7 68.65 484.05 68.37 484.33 68.27 484.06 69.12 482.56 69.69 481.37 70.42 480.28 70.83 479.51 71.32 478.87 71.56 479.16Z"></path></g></svg>